<svg width="24" height="24" viewBox="0 0 24 24" fill="none" xmlns="http://www.w3.org/2000/svg">
<g id="01_run">
<g id="Group 26">
<g id="Group 1">
<path id="Vector" d="M5.42079 17.2296L10.0192 17.1336C10.2208 17.1336 10.4608 16.992 10.5568 16.812L10.8856 16.3032L9.29679 14.124L8.83839 15.1776L5.37279 15.5592C5.37279 15.5592 4.76559 15.6768 4.80159 16.4016C4.83279 17.0688 5.27439 17.2008 5.42079 17.2296Z" fill="#EA0008"/>
<path id="Vector_2" d="M7.5663 10.284C7.9119 10.5648 8.2743 10.5024 8.4567 10.3152L10.4295 8.28243L12.1503 8.71923L10.2303 11.2584C9.9639 11.7072 9.4455 12.588 9.8727 13.3224L12.1023 16.3824L11.1591 19.8672C11.1591 19.8672 11.0799 20.436 11.7687 20.664C12.1503 20.7912 12.6159 20.7384 12.7743 20.3856L14.4111 15.912C14.4855 15.7248 14.4423 15.4464 14.3151 15.2904L12.6975 12.9432L14.1639 11.2248L14.2335 12.06C14.2503 12.1992 14.3151 12.384 14.4519 12.468C15.3567 13.0224 17.8503 14.3112 17.8503 14.3112C18.1215 14.4216 18.4743 14.304 18.6951 13.9704C18.9855 13.5264 18.6975 13.104 18.6975 13.104L16.1559 11.124C16.1559 11.124 16.1487 9.19683 16.1223 8.44083C16.0911 7.51203 14.9799 6.61923 14.2359 6.60723C13.1583 6.59283 9.9303 6.49683 9.9303 6.49683C9.6039 6.49683 9.4071 6.71283 9.2127 6.94323L7.3167 9.32403C7.3167 9.32403 6.9999 9.83283 7.5639 10.2912L7.5663 10.284Z" fill="#EA0008"/>
<path id="Vector_3" d="M17.0872 7.34399C18.1888 7.34399 19.0816 6.45119 19.0816 5.35199C19.0816 4.25279 18.1888 3.35999 17.0872 3.35999C15.9856 3.35999 15.0952 4.25279 15.0952 5.35199C15.0952 6.45119 15.988 7.34399 17.0872 7.34399Z" fill="#EA0008"/>
</g>
</g>
</g>
</svg>
