<svg width="24" height="24" viewBox="0 0 24 24" fill="none" xmlns="http://www.w3.org/2000/svg">
<g id="02_swim">
<g id="Group 27">
<g id="Group 2">
<path id="Vector" d="M13.897 11.229C13.3258 10.6458 11.6314 8.86741 11.6314 8.86741L14.6506 7.98181C15.2386 7.73461 15.517 7.05541 15.2674 6.46741C15.0202 5.87941 14.341 5.60341 13.7554 5.85061L8.93621 7.18021C8.57861 7.32901 8.32422 7.64581 8.24982 8.02501C8.17542 8.40421 8.38421 8.72341 8.56901 9.06421C8.92181 9.71941 9.82661 10.8906 10.4626 11.8434L8.24022 12.9138C9.46422 12.9834 10.6474 13.3026 12.1906 13.797C12.6226 13.9362 14.3602 14.6106 15.229 14.757L14.1826 11.7066C14.1298 11.5314 14.0362 11.3682 13.8994 11.229H13.897Z" fill="#EA0008"/>
<path id="Vector_2" d="M15.3106 12.9859C15.4354 14.2459 16.561 15.1651 17.821 15.0403C19.0834 14.9131 20.0002 13.7899 19.873 12.5299C19.7482 11.2699 18.6226 10.3507 17.3626 10.4755C16.1002 10.6027 15.1834 11.7259 15.3082 12.9883L15.3106 12.9859Z" fill="#EA0008"/>
<path id="Vector_3" d="M4.46264 16.2138C5.07704 15.5802 6.42583 14.5338 8.56183 14.6466C9.89863 14.7162 11.2762 15.153 12.733 15.6162C14.3674 16.1346 15.9058 16.5882 17.4058 16.6602C18.1834 16.6986 19.345 16.6122 20.1058 16.3578C20.2954 16.2954 20.4058 16.101 20.3482 15.909C20.2906 15.7194 20.0914 15.609 19.8994 15.6666C19.3954 15.8178 18.5554 15.9858 17.437 15.9402C16.0258 15.8706 14.533 15.429 12.949 14.9274C11.4466 14.4522 10.0258 14.001 8.59784 13.9266C6.17624 13.797 4.64264 14.9898 3.94184 15.7098C3.80264 15.8514 3.80744 16.0794 3.94904 16.2186C4.09064 16.3578 4.31863 16.353 4.45783 16.2114L4.46264 16.2138Z" fill="#EA0008"/>
<path id="Vector_4" d="M14.8186 17.241C14.2954 17.1042 13.6546 16.8978 12.9778 16.677C12.1954 16.4226 11.3866 16.161 10.5898 15.9498C7.64984 15.1722 6.40904 16.3002 6.35864 16.3482C6.21464 16.4826 6.20984 16.7058 6.34184 16.8522C6.47384 16.9962 6.70184 17.0058 6.84824 16.8762C6.85784 16.8666 7.88744 15.981 10.405 16.6458C11.1802 16.8522 11.9818 17.1114 12.7546 17.361C13.441 17.5842 14.0914 17.793 14.6362 17.937C14.6674 17.9442 14.6962 17.949 14.7274 17.949C14.8882 17.949 15.0322 17.841 15.0754 17.6802C15.1258 17.4882 15.0106 17.2914 14.8186 17.241Z" fill="#EA0008"/>
<path id="Vector_5" d="M8.20173 17.2961C8.00973 17.3441 7.89453 17.5385 7.94013 17.7305C7.98813 17.9225 8.18253 18.0401 8.37453 17.9945C8.38413 17.9921 9.39453 17.7593 10.5009 18.3953C10.5585 18.4289 10.6185 18.4433 10.6809 18.4433C10.8057 18.4433 10.9257 18.3785 10.9929 18.2633C11.0913 18.0905 11.0337 17.8697 10.8609 17.7713C9.49053 16.9841 8.25213 17.2817 8.19933 17.2937L8.20173 17.2961Z" fill="#EA0008"/>
</g>
</g>
</g>
</svg>
