<svg width="24" height="24" viewBox="0 0 24 24" fill="none" xmlns="http://www.w3.org/2000/svg">
<g id="03_bandstretchs">
<g id="Group 28">
<g id="Group 3">
<path id="Vector" d="M11.9044 11.1936C13.3348 11.1936 14.4988 10.0296 14.4988 8.5968C14.4988 7.164 13.3348 6 11.9044 6C10.474 6 9.30518 7.164 9.30518 8.5968C9.30518 10.0296 10.4692 11.1936 11.9044 11.1936Z" fill=""/>
<path id="Vector_2" d="M3.90756 11.3783C3.90756 11.5775 4.06836 11.7383 4.26756 11.7383C4.46676 11.7383 4.62756 11.5775 4.62756 11.3783V10.2335C6.45396 13.5623 8.75077 14.6759 8.75077 14.6759V17.9951L15.0796 18.0023V14.6879C15.0796 14.6879 17.4388 13.5335 19.1524 10.3319V11.6111C19.1524 11.8103 19.3132 11.9711 19.5124 11.9711C19.7116 11.9711 19.8724 11.8103 19.8724 11.6111V8.70473C20.0188 8.15993 19.9324 7.61033 19.4668 7.33433C19.1164 7.12793 18.5236 7.06313 18.13 7.46393H14.8852C14.9716 7.69193 15.034 7.93433 15.0676 8.18393H17.6668C16.3348 10.3847 14.8108 12.2783 11.8996 12.2783C8.98836 12.2783 7.32516 10.0151 6.10836 8.18393H8.73157C8.76517 7.93433 8.82516 7.69193 8.91396 7.46393H5.61396C5.17956 6.99593 4.63716 7.19993 4.34676 7.35593C3.94116 7.57673 3.72517 8.15273 3.90277 8.70953V11.3783H3.90756Z" fill=""/>
</g>
</g>
</g>
</svg>
