<svg width="24" height="24" viewBox="0 0 24 24" fill="none" xmlns="http://www.w3.org/2000/svg">
<g id="04_standingstretch">
<g id="Group 29">
<g id="Group 4">
<path id="Vector" d="M6.31079 18.0384C6.31079 18.0384 6.40199 18.7152 7.27559 18.7272C8.24999 18.7392 8.26919 18.0552 8.26919 18.0552L9.05399 8.69284C10.842 10.1976 12.102 11.6424 12.102 11.6424C12.102 11.6424 11.1156 13.4232 10.7364 14.0784C10.59 14.3328 10.578 14.5992 10.5996 14.928C10.65 15.696 10.7436 18.0048 10.7436 18.0048C10.7436 18.0048 10.758 18.6192 11.4972 18.6312C12.2148 18.6432 12.2628 18.0288 12.2628 18.0288L12.7572 14.9664L15.2868 11.46C15.762 10.6344 15.9564 9.63124 14.1732 8.16484C12.0492 6.41764 9.46439 5.04244 7.58759 5.04004C6.29639 5.03764 5.34359 6.14164 5.54759 7.62964L6.31079 18.0432V18.0384Z" fill="#EA0008"/>
<path id="Vector_2" d="M14.5859 14.0713C14.5859 15.1681 15.4763 16.0561 16.5731 16.0561C17.6699 16.0561 18.5603 15.1681 18.5603 14.0713C18.5603 12.9745 17.6699 12.0841 16.5731 12.0841C15.4763 12.0841 14.5859 12.9745 14.5859 14.0713Z" fill="#EA0008"/>
</g>
</g>
</g>
</svg>
