<svg width="24" height="24" viewBox="0 0 24 24" fill="none" xmlns="http://www.w3.org/2000/svg">
<g id="05_stepups">
<g id="Group 30">
<g id="Group 5">
<path id="Vector" d="M11.1516 14.7792C10.7028 14.6472 10.374 14.46 10.1316 14.2416L8.94836 18.0696C8.77556 18.5376 9.01796 19.0584 9.48596 19.2312C9.95396 19.404 10.4748 19.1616 10.6452 18.6936L12.1452 15.048C11.7732 14.9544 11.4156 14.8608 11.1516 14.7816V14.7792Z" fill=""/>
<path id="Vector_2" d="M9.74984 13.3872C10.1482 13.248 10.417 12.8112 10.2394 12.3552L9.57464 10.2912L10.3858 10.0056L10.321 10.8192L10.873 12.5352C11.0362 12.9528 10.813 13.3704 10.477 13.5648C10.6594 13.7808 10.9378 13.9464 11.3458 14.0664C12.2338 14.3304 14.2162 14.7768 14.2162 14.7768C14.2162 14.7768 14.0626 16.1112 13.8826 17.2608C13.8706 17.3424 13.861 17.448 13.8658 17.5608H15.661C15.9082 16.4952 16.0282 15.3864 16.2634 14.2368C16.405 13.5432 16.249 13.152 15.649 12.9168C14.8642 12.6096 12.8914 11.7528 12.8914 11.7528L13.1962 10.008L15.1186 10.704C15.5578 10.9032 16.1147 10.8024 16.3715 10.2672L17.5906 7.74717C17.7874 7.29837 17.7394 6.86157 17.3146 6.61437C16.9498 6.40317 16.405 6.47037 16.177 6.90477L15.061 8.76477L12.9154 7.55997C12.217 7.13997 11.6122 7.17357 11.1826 7.41117L8.07945 9.05517C7.64025 9.25677 7.34984 9.73917 7.58264 10.2864L8.67704 12.864C8.93624 13.4016 9.28904 13.548 9.74984 13.3872Z" fill=""/>
<path id="Vector_3" d="M12.4571 6.85919C13.4243 6.85919 14.2067 6.07439 14.2067 5.10959C14.2067 4.14479 13.4243 3.35999 12.4571 3.35999C11.4899 3.35999 10.7075 4.14239 10.7075 5.10959C10.7075 6.07679 11.4923 6.85919 12.4571 6.85919Z" fill=""/>
<path id="Vector_4" d="M6.09471 7.60077C6.17151 7.60077 6.24591 7.58877 6.32031 7.56717C6.83151 7.41117 6.81471 7.04397 6.81471 7.04157L6.81951 5.31597L8.54751 5.14317V6.13917C8.42271 6.11037 8.2907 6.11757 8.1635 6.15597C7.8131 6.26397 7.59711 6.58797 7.68591 6.87837C7.75311 7.10157 7.97871 7.24557 8.25711 7.24557C8.33151 7.24557 8.40831 7.23357 8.48511 7.21197C8.98911 7.06797 8.98431 6.69597 8.98431 6.69357V4.40397C8.98431 4.25037 8.85231 4.20717 8.78031 4.21437L6.56751 4.43277C6.47151 4.43277 6.38751 4.53117 6.38751 4.64397V6.51117C6.26511 6.48237 6.13311 6.48717 6.00831 6.52557C5.66271 6.63117 5.45151 6.95037 5.54031 7.23597C5.60751 7.45437 5.83071 7.60077 6.09951 7.60077H6.09471Z" fill=""/>
<path id="Vector_5" d="M12.9587 18.4271L12.6899 20.1431C12.6899 20.2895 12.8099 20.4095 12.9587 20.4095H18.2411C18.3875 20.4095 18.5075 20.2895 18.5075 20.1431L18.2387 18.4271C18.2387 18.2783 18.1187 18.1583 17.9699 18.1583H13.2227C13.0739 18.1583 12.9563 18.2783 12.9563 18.4271H12.9587Z" fill=""/>
</g>
</g>
</g>
</svg>
