<svg width="24" height="24" viewBox="0 0 24 24" fill="none" xmlns="http://www.w3.org/2000/svg">
<g id="06_bike">
<g id="Group 31">
<g id="Group 6">
<path id="Vector" d="M14.5414 12.1753C14.3254 12.0721 14.1478 11.9089 14.0086 11.6905L13.0078 12.7441C13.0582 12.9361 13.0798 13.1281 13.0702 13.3225C13.0654 13.4401 13.0558 13.5865 13.0462 13.7473L14.5414 12.1753Z" fill=""/>
<path id="Vector_2" d="M17.1814 12.864C16.9726 12.864 16.7662 12.8856 16.5694 12.924L16.3534 12.2208C16.027 12.2424 15.7894 12.2592 15.6166 12.2712L15.883 13.1352C14.7238 13.6392 13.9102 14.7936 13.9102 16.1376C13.9102 17.9424 15.379 19.4112 17.1838 19.4112C18.9886 19.4112 20.4574 17.9424 20.4574 16.1376C20.4574 14.3328 18.9886 12.864 17.1838 12.864H17.1814ZM17.1814 18.6912C15.7726 18.6912 14.6278 17.5464 14.6278 16.1376C14.6278 15.12 15.2302 14.2392 16.0942 13.8312L16.6486 15.6312C16.5262 15.7608 16.4518 15.936 16.4518 16.128C16.4518 16.5312 16.7782 16.8576 17.1814 16.8576C17.5846 16.8576 17.911 16.5312 17.911 16.128C17.911 15.7776 17.6638 15.4848 17.335 15.4152L16.7806 13.6176C16.9102 13.596 17.0446 13.584 17.179 13.584C18.5878 13.584 19.7326 14.7288 19.7326 16.1376C19.7326 17.5464 18.5878 18.6912 17.179 18.6912H17.1814Z" fill=""/>
<path id="Vector_3" d="M6.63346 19.4113C8.43826 19.4113 9.90706 17.9425 9.90706 16.1377C9.90706 15.0769 9.39586 14.1337 8.61106 13.5361L9.17266 12.5977C9.01906 12.4009 8.86066 12.1921 8.70466 11.9785L7.99426 13.1641C7.57906 12.9745 7.12066 12.8641 6.63346 12.8641C4.82866 12.8641 3.35986 14.3329 3.35986 16.1377C3.35986 17.9425 4.82866 19.4113 6.63346 19.4113ZM6.63346 13.5841C6.98386 13.5841 7.31746 13.6561 7.62226 13.7833L6.65506 15.4009C6.65506 15.4009 6.64066 15.4009 6.63346 15.4009C6.23026 15.4009 5.90386 15.7273 5.90386 16.1305C5.90386 16.5337 6.23026 16.8601 6.63346 16.8601C7.03666 16.8601 7.36306 16.5337 7.36306 16.1305C7.36306 16.0009 7.32706 15.8833 7.26946 15.7777L8.23906 14.1577C8.81746 14.6257 9.18706 15.3409 9.18706 16.1401C9.18706 17.5489 8.04226 18.6937 6.63346 18.6937C5.22466 18.6937 4.07986 17.5489 4.07986 16.1401C4.07986 14.7313 5.22466 13.5865 6.63346 13.5865V13.5841Z" fill=""/>
<path id="Vector_4" d="M7.31494 10.6633C7.31494 10.8289 7.44934 10.9633 7.61494 10.9633H8.01334C7.87894 10.7449 7.76854 10.5385 7.69414 10.3633H7.61494C7.44934 10.3633 7.31494 10.4977 7.31494 10.6633Z" fill=""/>
<path id="Vector_5" d="M14.4215 11.1937C14.5607 11.5369 14.7935 11.7025 15.1415 11.7025L18.3671 11.4769C18.4943 11.4721 18.9455 11.2897 18.9383 10.7521C18.9335 10.3417 18.6479 10.0441 18.2591 10.0417L15.9095 9.99848C15.7847 9.61448 15.2639 8.02088 15.0551 7.49048C14.8007 6.83528 14.0951 6.54248 13.5095 6.54248C11.8319 6.54248 9.52551 7.74728 8.70471 8.42168C8.06871 8.94488 8.04231 9.62888 8.22951 10.0945C8.58231 10.9729 10.1855 12.9097 10.4183 13.1905L10.5623 16.5313C10.5815 16.8553 10.7783 17.4073 11.3879 17.4073C12.0383 17.4073 12.1751 16.9609 12.2255 16.5721C12.3071 15.9097 12.4319 14.0497 12.4679 13.2937C12.4799 13.0441 12.4199 12.7945 12.2807 12.5281L11.0495 10.1713L13.6295 9.45848L14.4215 11.1937Z" fill=""/>
<path id="Vector_6" d="M17.4598 8.05926C18.4246 8.05926 19.2094 7.27446 19.2094 6.30966C19.2094 5.34486 18.4246 4.56006 17.4598 4.56006C16.495 4.56006 15.7078 5.34486 15.7078 6.30966C15.7078 7.27446 16.4926 8.05926 17.4598 8.05926Z" fill=""/>
</g>
</g>
</g>
</svg>
