<svg width="24" height="24" viewBox="0 0 24 24" fill="none" xmlns="http://www.w3.org/2000/svg">
<g id="07_walk">
<g id="Group 32">
<g id="Group 7">
<path id="Vector" d="M17.6811 11.7192C17.8971 11.0952 17.3907 10.8504 17.3907 10.8504L14.6715 9.42239L13.8123 8.22479L13.3779 10.9944C13.5075 11.1144 13.6899 11.2392 13.9683 11.3184C14.7219 11.532 16.8099 12.1896 16.8099 12.1896C17.3235 12.3336 17.5899 11.9904 17.6835 11.7192H17.6811Z" fill=""/>
<path id="Vector_2" d="M12.089 20.988C12.8882 21.2304 13.1114 20.7816 13.241 20.4816C13.7738 19.2528 14.477 16.2768 14.477 16.2768C14.5298 16.0608 14.5586 15.7704 14.4314 15.5904L12.3746 12.4008L13.0346 8.39996C13.1402 6.88556 12.029 6.65275 11.5802 6.69595C10.8458 6.76555 7.85301 7.82395 7.36341 8.00395C7.02981 8.12635 6.90261 8.34716 6.84261 8.74796L6.49221 11.9736C6.49221 11.9736 6.34101 12.624 7.10181 12.7608C7.61301 12.852 7.90581 12.6048 8.00661 12.2568L8.74581 9.70796L9.47061 9.41996L8.95461 12.1824C8.87301 12.744 9.05061 13.3656 9.58581 13.908C10.181 14.5128 11.9714 16.4568 11.9714 16.4568L11.4578 19.9704C11.4578 19.9704 11.2442 20.7312 12.0938 20.988H12.089Z" fill=""/>
<path id="Vector_3" d="M7.18813 19.4976C7.18813 19.4976 7.09933 20.1336 7.87693 20.3544C8.32333 20.4816 8.72893 20.412 8.93533 20.0016L10.7761 16.3344L8.88733 14.424L7.18813 19.4952V19.4976Z" fill=""/>
<path id="Vector_4" d="M13.2027 2.88C12.1563 2.88 11.3091 3.7272 11.3091 4.7736C11.3091 5.82 12.1563 6.6672 13.2027 6.6672C14.2491 6.6672 15.0963 5.82 15.0963 4.7736C15.0963 3.7272 14.2491 2.88 13.2027 2.88Z" fill=""/>
</g>
</g>
</g>
</svg>
