<svg width="24" height="24" viewBox="0 0 24 24" fill="none" xmlns="http://www.w3.org/2000/svg">
<g id="08_lift">
<g id="Group 33">
<g id="Group 8">
<path id="Vector" d="M18.8689 6.31433H18.0817C17.9713 6.31433 17.8825 6.40313 17.8825 6.51353V8.21513H6.32649V6.51353C6.32649 6.40313 6.23769 6.31433 6.12729 6.31433H5.34009V11.0111H6.12729C6.23769 11.0111 6.32649 10.9223 6.32649 10.8119V9.11033H7.35129C7.50489 9.82793 7.90089 11.5343 8.30649 12.0383C8.53449 12.3215 9.08169 12.1991 9.39369 12.0023L10.1833 11.5919V13.6079L8.20089 14.4551C7.91049 14.6159 7.72329 14.8631 7.79769 15.3599L8.23689 19.1327C8.26329 19.3823 8.48648 19.6775 9.07928 19.6583C9.54008 19.6439 9.70569 19.2695 9.72489 19.0487C9.78969 18.2687 9.89049 15.9191 9.89049 15.9191L12.0937 15.4727L14.3065 15.9191C14.3065 15.9191 14.4073 18.2687 14.4721 19.0487C14.4913 19.2695 14.6569 19.6439 15.1177 19.6583C15.7105 19.6775 15.9337 19.3823 15.9601 19.1327L16.3993 15.3599C16.4761 14.8631 16.2889 14.6159 15.9985 14.4551L14.0209 13.6103V11.5967L14.8033 12.0023C15.0745 12.1751 15.6649 12.3383 15.8905 12.0383C16.2817 11.5223 16.6849 9.82553 16.8433 9.11033H17.8777V10.8119C17.8777 10.9223 17.9665 11.0111 18.0769 11.0111H18.8641V6.31433H18.8689ZM15.0097 10.0271L14.4817 9.75113H9.72008L9.19208 10.0271L8.88969 9.11033H15.3145L15.0121 10.0271H15.0097Z" fill="#EA0008"/>
<path id="Vector_2" d="M4.03928 11.0111H4.82649V6.31433H4.03928C3.92888 6.31433 3.84009 6.40313 3.84009 6.51353V10.8119C3.84009 10.9223 3.92888 11.0111 4.03928 11.0111Z" fill="#EA0008"/>
<path id="Vector_3" d="M20.1673 6.31433H19.3777V11.0111H20.1673C20.2777 11.0111 20.3665 10.9223 20.3665 10.8119V6.51353C20.3665 6.40313 20.2777 6.31433 20.1673 6.31433Z" fill="#EA0008"/>
<path id="Vector_4" d="M12.1032 7.86235C13.0814 7.86235 13.8744 7.06935 13.8744 6.09115C13.8744 5.11294 13.0814 4.31995 12.1032 4.31995C11.125 4.31995 10.332 5.11294 10.332 6.09115C10.332 7.06935 11.125 7.86235 12.1032 7.86235Z" fill="#EA0008"/>
</g>
</g>
</g>
</svg>
