<svg width="24" height="24" viewBox="0 0 24 24" fill="none" xmlns="http://www.w3.org/2000/svg">
<g id="09_situps">
<g id="Group 34">
<g id="Group 9">
<path id="Vector" d="M7.64926 18.2712L13.4357 17.964L17.7125 18.276C17.7125 18.276 18.7421 18.3264 18.7853 17.4024C18.8381 16.3608 17.8733 16.284 17.8733 16.284L13.3877 15.4632L9.12765 15.2904C9.74445 14.5656 11.0093 13.0656 11.5397 12.5424L16.0253 15.0672C16.4693 15.3816 17.0837 15.276 17.3981 14.8344C17.7125 14.3904 17.6069 13.776 17.1653 13.4616L12.2093 9.6384C11.2445 8.9544 9.80686 8.7744 8.28286 10.4016C6.46846 12.3408 5.51566 14.352 5.29726 16.0008C5.14366 17.1552 6.02446 18.2736 7.64926 18.2736V18.2712Z" fill="#EA0008"/>
<path id="Vector_2" d="M14.3021 5.52002C13.1021 5.52002 12.1301 6.49202 12.1301 7.69202C12.1301 8.89202 13.1021 9.86402 14.3021 9.86402C15.5021 9.86402 16.4741 8.89202 16.4741 7.69202C16.4741 6.49202 15.5021 5.52002 14.3021 5.52002Z" fill="#EA0008"/>
</g>
</g>
</g>
</svg>
