<svg width="24" height="24" viewBox="0 0 24 24" fill="none" xmlns="http://www.w3.org/2000/svg">
<g id="10_liftedlegsitups">
<g id="Group 35">
<g id="Group 10">
<path id="Vector" d="M12.7291 6.62632C12.4963 6.58792 12.2923 6.55913 12.1291 6.54473C11.6107 6.49433 11.1739 6.90472 11.0203 7.40152C10.8403 7.97992 10.4251 9.12232 10.0579 10.1135L10.7515 9.97192L12.7291 6.62872V6.62632Z" fill="#EA0008"/>
<path id="Vector_2" d="M16.5712 10.4328C16.0552 11.1528 16.0216 12.192 16.4944 12.9624C16.54 13.0368 16.6193 13.0776 16.6985 13.0776C16.7417 13.0776 16.7848 13.0656 16.8232 13.0416C16.936 12.972 16.972 12.8256 16.9024 12.7104C16.528 12.1008 16.552 11.28 16.96 10.7136C17.0368 10.6056 17.0128 10.4568 16.9048 10.3776C16.7968 10.3008 16.648 10.3248 16.5688 10.4328H16.5712Z" fill="#EA0008"/>
<path id="Vector_3" d="M19.917 8.95911C19.7826 9.13671 19.6098 9.2735 19.4082 9.3623C20.2914 9.7991 20.9034 10.7087 20.9034 11.7599C20.9034 13.2359 19.7034 14.4359 18.2274 14.4359C16.7514 14.4359 15.5514 13.2359 15.5514 11.7599C15.5514 10.6631 16.2162 9.71991 17.1618 9.30711C16.845 9.26631 16.521 9.22071 16.2186 9.17991C15.4506 9.77991 14.9514 10.7135 14.9514 11.7623C14.9514 13.5695 16.4202 15.0383 18.2274 15.0383C20.0346 15.0383 21.5034 13.5695 21.5034 11.7623C21.5034 10.5743 20.8674 9.53751 19.9194 8.96151L19.917 8.95911Z" fill="#EA0008"/>
<path id="Vector_4" d="M14.5721 6.19913C15.6041 6.43913 18.8561 7.20953 18.8561 7.20953C19.4225 7.31513 19.7009 7.71833 19.5977 8.28713C19.5233 8.69513 19.1369 8.90873 18.7505 8.87993C17.7809 8.80553 14.8913 8.37833 14.8913 8.37833L13.6217 11.8391C13.5185 12.0551 13.3601 12.3527 12.9785 12.6071L11.0705 12.4583L9.30888 12.0695L9.07128 12.6815L10.9769 13.0895L13.9361 13.3199C14.4449 13.3319 14.7977 13.6391 14.7953 14.0903C14.7929 14.5703 14.4497 14.8679 13.9697 14.9039C13.9697 14.9039 11.9201 14.9687 11.2361 14.9903C11.1041 14.9951 10.9193 14.9783 10.7849 14.9591C10.0649 14.8511 8.64168 14.6711 7.90968 14.5319C7.68168 14.4887 6.31128 14.1287 6.31128 12.8183C6.31128 12.2207 6.55369 11.4983 7.41289 11.2631L11.1353 10.5047L13.3505 6.75593C13.6073 6.23753 14.1017 6.08633 14.5745 6.19673L14.5721 6.19913Z" fill="#EA0008"/>
<path id="Vector_5" d="M5.86308 13.0086C6.11488 11.9417 5.45415 10.8727 4.38728 10.6209C3.32042 10.3691 2.25143 11.0299 1.99963 12.0967C1.74783 13.1636 2.40856 14.2326 3.47543 14.4844C4.54229 14.7362 5.61127 14.0754 5.86308 13.0086Z" fill="#EA0008"/>
</g>
</g>
</g>
</svg>
