<svg width="24" height="24" viewBox="0 0 24 24" fill="none" xmlns="http://www.w3.org/2000/svg">
<g id="11_crunches">
<g id="Group 36">
<g id="Group 11">
<path id="Vector" d="M13.9097 10.0992C13.7705 10.5432 13.3817 11.6256 13.0193 12.6096C13.3553 12.324 14.1113 11.6592 14.4017 11.4288C15.1241 10.8552 15.6449 10.6752 16.6721 11.0664L20.2721 12.6168C20.4257 12.48 20.5553 12.2832 20.6297 12.012C20.8385 11.244 20.4017 10.8048 20.1257 10.716C18.8393 10.3104 17.3129 9.8472 15.9305 9.4128C14.9297 9.1008 14.2361 9.048 13.9097 10.0992Z" fill=""/>
<path id="Vector_2" d="M4.73193 9.21601C4.73193 10.3296 5.63433 11.232 6.74793 11.232C7.86153 11.232 8.76393 10.3296 8.76393 9.21601C8.76393 8.10241 7.86153 7.20001 6.74793 7.20001C5.63433 7.20001 4.73193 8.10241 4.73193 9.21601Z" fill=""/>
<path id="Vector_3" d="M20.6368 13.5744C19.4008 13.0296 17.9392 12.4008 16.6096 11.82C15.7 11.424 15.3688 11.5776 14.776 12.0672C14.2096 12.5352 12.9232 13.656 12.9232 13.656C12.9232 13.656 12.208 13.4952 10.3504 12.4536L11.9728 10.9656C12.544 10.344 12.3832 9.73918 11.9152 9.45118L9.13123 7.84558C9.36403 8.24878 9.49843 8.71438 9.49843 9.21358C9.49843 9.59758 9.41923 9.95998 9.27763 10.2912L9.65923 10.5552L5.34883 13.2744L4.73203 10.8456C4.58563 10.3416 4.23283 10.0152 3.65203 10.1208C3.07123 10.2264 2.80963 10.5936 2.89603 11.2296L3.59203 15.2328C3.70243 15.7704 4.21603 16.128 4.99603 15.7992L7.15363 14.7312C9.83443 16.5768 12.136 16.884 13.048 16.884C13.6384 16.884 14.3104 16.6008 14.7928 16.0968L16.4104 14.4408C16.4104 14.4408 18.5344 15.2592 19.7872 15.6336C20.1568 15.744 20.7424 15.576 20.9944 14.916C21.28 14.1744 20.9008 13.6896 20.6344 13.572L20.6368 13.5744Z" fill=""/>
</g>
</g>
</g>
</svg>
