<svg width="24" height="24" viewBox="0 0 24 24" fill="none" xmlns="http://www.w3.org/2000/svg">
<g id="12_pushups">
<g id="Group 37">
<g id="Group 12">
<path id="Vector" d="M18.0219 15.2948H18.4611L19.1067 16.5284H3.43712L3.76112 15.9068C3.57872 15.8132 3.42032 15.6788 3.28832 15.5132L2.67392 16.6868C2.62592 16.7804 2.62832 16.8908 2.68352 16.982C2.73872 17.0732 2.83472 17.126 2.94032 17.126H19.6011C19.7067 17.126 19.8027 17.0708 19.8579 16.982C19.9131 16.8932 19.9155 16.7804 19.8675 16.6868L18.9075 14.8532C18.8547 14.7548 18.7539 14.6924 18.6411 14.6924H18.0699V14.8484C18.0723 15.002 18.0555 15.1508 18.0219 15.2924V15.2948Z" fill="#EA0008"/>
<path id="Vector_2" d="M9.38683 14.6948H14.1124C14.1556 14.9228 14.2324 15.1244 14.3452 15.2948H7.58203L8.66443 15.0092C8.91163 14.942 9.23563 14.8076 9.38923 14.6948H9.38683Z" fill="#EA0008"/>
<path id="Vector_3" d="M7.25062 11.9516L4.34422 12.5444C3.91462 12.6092 3.60982 12.9356 3.60742 13.3508C3.72262 13.2764 3.84502 13.214 3.97942 13.1732L7.25062 11.9516Z" fill="#EA0008"/>
<path id="Vector_4" d="M15.0674 12.3212L14.489 12.4844L14.6786 14.4716C14.7314 15.014 15.0434 15.242 15.377 15.2924C15.3506 15.1892 15.329 15.0788 15.317 14.9588L15.065 12.3212H15.0674Z" fill="#EA0008"/>
<path id="Vector_5" d="M15.49 8.7092L11.1916 9.9764C11.002 10.0196 10.7044 10.1204 10.4668 10.3028C9.80201 10.8164 9.12761 11.5028 8.14601 12.2564L4.16681 13.742C3.69401 13.8716 3.45161 14.3516 3.59081 14.8244C3.76601 15.4244 4.33001 15.5252 4.65881 15.4388L8.42201 14.45C8.62361 14.4116 8.83721 14.3036 8.94521 14.246L12.3196 12.4724L15.598 11.546L15.9172 14.9012C15.9796 15.5228 16.3204 15.7316 16.7068 15.734C17.2012 15.734 17.482 15.3428 17.47 14.8532L17.4748 10.0004C17.4748 9.0476 16.6828 8.354 15.49 8.7068V8.7092Z" fill="#EA0008"/>
<path id="Vector_6" d="M21.275 9.28535C21.4324 8.31586 20.7741 7.40235 19.8046 7.24498C18.8351 7.08761 17.9216 7.74597 17.7642 8.71546C17.6068 9.68496 18.2652 10.5985 19.2347 10.7558C20.2042 10.9132 21.1177 10.2548 21.275 9.28535Z" fill="#EA0008"/>
</g>
</g>
</g>
</svg>
