<svg width="24" height="24" viewBox="0 0 24 24" fill="none" xmlns="http://www.w3.org/2000/svg">
<g id="13_dumbelllifts">
<g id="Group 38">
<g id="Group 13">
<path id="Vector" d="M12.5545 14.6759C13.2361 14.6759 13.5961 14.8247 13.9105 14.9567C14.1745 15.0671 14.3857 15.1559 14.8513 15.1559C14.9929 15.1559 15.1105 15.1463 15.2137 15.1319L14.9953 12.8567C14.9953 12.8567 17.1025 11.2727 17.8921 7.75669C18.0289 7.26949 18.0529 6.92389 17.6617 6.71269C17.3521 6.54469 16.7881 6.53269 16.5745 7.09189C16.5745 7.09189 15.2737 10.9583 12.3625 11.3927C9.47291 11.8223 6.99131 8.51989 6.99131 8.51989C6.52331 8.05189 6.09131 8.22469 5.84171 8.47429C5.52971 8.79109 5.65211 9.11509 5.92571 9.54229C7.86251 12.7103 10.1689 13.5695 10.1689 13.5695L10.3633 15.1559C10.7545 15.1439 10.9537 15.0623 11.1985 14.9591C11.5153 14.8271 11.8729 14.6783 12.5545 14.6783V14.6759Z" fill=""/>
<path id="Vector_2" d="M18.3912 7.47346L18.1776 8.03986C18.0384 8.40946 18.2256 8.82465 18.5952 8.96385C18.9648 9.10305 19.38 8.91586 19.5192 8.54626L19.7328 7.97986C19.872 7.61026 19.6872 7.19506 19.3152 7.05586C18.9456 6.91666 18.5328 7.10386 18.3912 7.47346Z" fill=""/>
<path id="Vector_3" d="M15.2376 6.16548L15.0504 6.66227C14.928 6.98627 15.0912 7.34867 15.4152 7.47107C15.7392 7.59347 16.1016 7.43028 16.224 7.10628L16.4112 6.60947C16.5336 6.28547 16.3704 5.92308 16.0464 5.80068C15.7224 5.67828 15.36 5.84148 15.2376 6.16548Z" fill=""/>
<path id="Vector_4" d="M7.34176 7.36307C7.06576 7.57427 7.01536 7.97027 7.22896 8.24387L7.55056 8.66387C7.76176 8.93987 8.15536 8.99027 8.43136 8.77907C8.70496 8.56787 8.75776 8.17427 8.54656 7.90067L8.22256 7.48067C8.01136 7.20707 7.61776 7.15427 7.34176 7.36547V7.36307Z" fill=""/>
<path id="Vector_5" d="M5.7697 9.89029L5.4457 9.47029C5.2345 9.19669 4.8409 9.14389 4.5649 9.35509C4.2913 9.56629 4.2385 9.95989 4.4497 10.2359L4.7737 10.6559C4.9849 10.9319 5.3785 10.9823 5.6545 10.7711C5.9281 10.5599 5.9809 10.1663 5.7697 9.8927V9.89029Z" fill=""/>
<path id="Vector_6" d="M10.02 8.77187C10.02 9.86867 10.9104 10.7591 12.0072 10.7591C13.104 10.7591 13.9944 9.86867 13.9944 8.77187C13.9944 7.67507 13.104 6.78467 12.0072 6.78467C10.9104 6.78467 10.02 7.67507 10.02 8.77187Z" fill=""/>
<path id="Vector_7" d="M7.96081 16.0559C8.46961 16.0559 8.70721 16.1543 8.98321 16.2695C9.28081 16.3943 9.61921 16.5359 10.26 16.5359C10.9008 16.5359 11.2368 16.3943 11.5344 16.2695C11.8104 16.1543 12.048 16.0559 12.5544 16.0559C13.0608 16.0559 13.3008 16.1543 13.5768 16.2695C13.8744 16.3943 14.2128 16.5359 14.8536 16.5359C15.4944 16.5359 15.8304 16.3943 16.128 16.2695C16.404 16.1543 16.6416 16.0559 17.148 16.0559C17.6544 16.0559 17.8944 16.1543 18.168 16.2695C18.4656 16.3943 18.804 16.5359 19.4424 16.5359C19.6248 16.5359 19.7712 16.3871 19.7712 16.2071C19.7712 16.0271 19.6224 15.8783 19.4424 15.8783C18.9336 15.8783 18.696 15.7799 18.4224 15.6647C18.1248 15.5399 17.7864 15.3983 17.148 15.3983C16.5096 15.3983 16.1712 15.5399 15.8736 15.6647C15.5976 15.7799 15.36 15.8783 14.8536 15.8783C14.3472 15.8783 14.1072 15.7799 13.8336 15.6647C13.536 15.5399 13.1976 15.3983 12.5568 15.3983C11.916 15.3983 11.58 15.5399 11.2824 15.6647C11.0064 15.7799 10.7688 15.8783 10.2624 15.8783C9.75601 15.8783 9.51601 15.7799 9.24001 15.6647C8.94241 15.5399 8.60401 15.3983 7.96321 15.3983C7.32241 15.3983 6.98401 15.5399 6.68641 15.6647C6.41041 15.7799 6.17281 15.8783 5.66401 15.8783C5.48161 15.8783 5.33521 16.0271 5.33521 16.2071C5.33521 16.3871 5.48401 16.5359 5.66401 16.5359C6.30481 16.5359 6.64321 16.3943 6.94081 16.2695C7.21681 16.1543 7.45441 16.0559 7.96321 16.0559H7.96081Z" fill=""/>
<path id="Vector_8" d="M17.3593 18.1031C17.6185 18.2135 17.9137 18.3407 18.4753 18.3407C18.6577 18.3407 18.8041 18.1919 18.8041 18.0119C18.8041 17.8319 18.6553 17.6831 18.4753 17.6831C18.0505 17.6831 17.8489 17.5967 17.6185 17.4983C17.3593 17.3879 17.0617 17.2607 16.5025 17.2607C15.9433 17.2607 15.6457 17.3879 15.3865 17.4983C15.1561 17.5967 14.9545 17.6831 14.5297 17.6831C14.1049 17.6831 13.9032 17.5967 13.6728 17.4983C13.4112 17.3879 13.1161 17.2607 12.5569 17.2607C11.9977 17.2607 11.7001 17.3879 11.4409 17.4983C11.2105 17.5967 11.0089 17.6831 10.5841 17.6831C10.1593 17.6831 9.95765 17.5967 9.72485 17.4983C9.46325 17.3879 9.16805 17.2607 8.60645 17.2607C8.04485 17.2607 7.74965 17.3879 7.48805 17.4983C7.25525 17.5967 7.05605 17.6831 6.62885 17.6831C6.44645 17.6831 6.30005 17.8319 6.30005 18.0119C6.30005 18.1919 6.44885 18.3407 6.62885 18.3407C7.19045 18.3407 7.48565 18.2135 7.74725 18.1031C7.98005 18.0047 8.17925 17.9183 8.60645 17.9183C9.03365 17.9183 9.23285 18.0047 9.46565 18.1031C9.72725 18.2135 10.0225 18.3407 10.5841 18.3407C11.1457 18.3407 11.4408 18.2135 11.7 18.1031C11.9304 18.0047 12.1321 17.9183 12.5569 17.9183C12.9817 17.9183 13.1833 18.0047 13.4137 18.1031C13.6753 18.2135 13.9704 18.3407 14.532 18.3407C15.0936 18.3407 15.3889 18.2135 15.6481 18.1031C15.8785 18.0047 16.08 17.9183 16.5048 17.9183C16.9296 17.9183 17.1312 18.0047 17.3616 18.1031H17.3593Z" fill=""/>
</g>
</g>
</g>
</svg>
