<svg width="24" height="24" viewBox="0 0 24 24" fill="none" xmlns="http://www.w3.org/2000/svg">
<g id="14_leglift">
<g id="Group 39">
<g id="Group 14">
<path id="Vector" d="M9.03144 11.7696V11.7624V11.7552C8.97384 11.2656 9.04584 10.8384 9.23064 10.4904L3.43464 10.6104C2.87544 10.6104 2.41464 11.0544 2.40024 11.6184C2.38584 12.1896 2.83703 12.6648 3.40823 12.6792L9.16823 12.732L9.03144 11.772V11.7696Z" fill="#EA0008"/>
<path id="Vector_2" d="M16.3036 9.35998L10.7452 10.1472C9.99876 10.2768 9.51396 10.7304 9.62676 11.6856L10.09 14.9592C10.09 14.9592 8.15556 15.0864 6.92916 15.2064C6.59076 15.2376 6.12996 15.5952 6.15636 16.2816C6.18516 17.0304 6.70116 17.3064 6.97476 17.3064L10.9132 17.2992C11.902 17.2992 12.5404 17.1504 12.5404 16.1136C12.5404 15.2208 12.382 12.696 12.382 12.696L16.0468 12.4992L16.3924 16.6128C16.4596 17.2848 16.8892 17.5104 17.3068 17.5128C17.8396 17.5128 18.2092 17.0904 18.1948 16.5624L18.1996 10.8312C18.1996 9.87118 17.4364 9.19918 16.306 9.35998H16.3036Z" fill="#EA0008"/>
<path id="Vector_3" d="M21.7179 8.39998C21.7179 9.46078 20.8587 10.32 19.7979 10.32C18.7371 10.32 17.8779 9.46078 17.8779 8.39998C17.8779 7.33918 18.7371 6.47998 19.7979 6.47998C20.8587 6.47998 21.7179 7.33918 21.7179 8.39998Z" fill="#EA0008"/>
</g>
</g>
</g>
</svg>
