<svg width="24" height="24" viewBox="0 0 24 24" fill="none" xmlns="http://www.w3.org/2000/svg">
<g id="15_dumbellpress">
<g id="Group 40">
<g id="Group 15">
<path id="Vector" d="M18.3816 7.05894C17.9112 6.90054 17.4024 7.15014 17.2416 7.62054L16.9968 8.34054C16.836 8.81094 17.088 9.32214 17.5584 9.48294C18.0288 9.64374 18.54 9.39174 18.7008 8.92134L18.9456 8.20134C19.1064 7.73094 18.8544 7.21974 18.384 7.05894H18.3816Z" fill="#EA0008"/>
<path id="Vector_2" d="M12.9768 7.75015C13.4472 7.91095 13.9584 7.65895 14.1168 7.18855L14.3616 6.46855C14.5224 5.99815 14.2704 5.48695 13.8 5.32855C13.3296 5.16775 12.8184 5.41975 12.66 5.89015L12.4152 6.61015C12.2544 7.08055 12.5064 7.59175 12.9768 7.75255V7.75015Z" fill="#EA0008"/>
<path id="Vector_3" d="M4.80005 16.3421L4.93685 18.5717H7.08965L7.02245 16.7813L7.50485 16.7525L7.77125 18.5717H13.1784L12.8089 14.3357C12.8089 14.3357 15.6312 12.3269 16.6464 7.81254C16.824 7.18614 16.7089 6.68934 16.1113 6.45174C15.6889 6.28614 15.1129 6.21414 14.8393 6.93174C14.8393 6.93174 13.2601 11.9261 9.31685 12.5309C5.72165 13.0829 4.79525 13.6901 4.80245 16.3397L4.80005 16.3421Z" fill="#EA0008"/>
<path id="Vector_4" d="M11.4531 9.77269C11.6684 8.44197 10.7642 7.18869 9.43349 6.9734C8.10278 6.75811 6.84949 7.66234 6.6342 8.99305C6.41891 10.3238 7.32314 11.5771 8.65385 11.7923C9.98457 12.0076 11.2379 11.1034 11.4531 9.77269Z" fill="#EA0008"/>
</g>
</g>
</g>
</svg>
