<svg width="24" height="24" viewBox="0 0 24 24" fill="none" xmlns="http://www.w3.org/2000/svg">
<g id="16_leglifts">
<g id="Group 41">
<g id="Group 16">
<path id="Vector" d="M7.6817 7.99444C8.4065 7.99444 8.9945 7.40644 8.9945 6.68164C8.9945 5.95684 8.4065 5.36884 7.6817 5.36884C6.9569 5.36884 6.3689 5.95684 6.3689 6.68164C6.3689 7.40644 6.9569 7.99444 7.6817 7.99444Z" fill="#EA0008"/>
<path id="Vector_2" d="M6.21768 9.67199L6.22488 11.4L5.30568 11.8152C5.00568 11.952 4.83288 12.1944 4.83288 12.48V14.568C4.83288 14.9592 5.14968 15.276 5.54088 15.276C5.93208 15.276 6.24888 14.9592 6.24888 14.568V13.1688L7.59528 12.6792L7.78008 16.5504C7.83288 16.9128 8.08728 17.1624 8.46888 17.1624C8.85048 17.1624 9.10968 16.896 9.15048 16.5312L8.87688 10.2552C9.79848 10.8024 10.2017 11.976 10.2017 11.976C10.2977 12.2112 10.6193 12.42 11.0009 12.2184C11.2337 12.0936 11.3705 11.6904 11.2121 11.3784C10.3865 9.76559 9.91608 8.97599 8.84808 8.61119C8.04648 8.33759 7.68168 8.5848 6.57528 8.1144C5.78328 7.776 5.05128 6.99119 4.63128 6.30719C4.42008 5.96399 4.12008 5.91599 3.82008 6.07199C3.58488 6.19439 3.53928 6.6048 3.67848 6.9288C4.41528 8.712 5.54328 9.24719 6.21528 9.66719L6.21768 9.67199Z" fill="#EA0008"/>
<path id="Vector_3" d="M15.6617 7.73281C16.6049 7.73281 17.3681 6.96721 17.3681 6.02641C17.3681 5.08561 16.6049 4.32001 15.6617 4.32001C14.7185 4.32001 13.9553 5.08561 13.9553 6.02641C13.9553 6.96721 14.7185 7.73281 15.6617 7.73281Z" fill="#EA0008"/>
<path id="Vector_4" d="M17.1808 8.53919C16.1392 8.18399 15.664 8.50559 14.2264 7.89359C13.1944 7.45199 12.244 6.43438 11.6992 5.54398C11.4256 5.09758 11.032 5.03518 10.6432 5.23678C10.3384 5.39518 10.276 5.93039 10.4608 6.35039C11.4184 8.66879 12.8872 9.36719 13.7608 9.91199L13.696 12.0816C13.804 12.0576 13.9168 12.0432 14.032 12.0432C14.8696 12.0432 15.5536 12.7248 15.5536 13.5648L15.7936 18.8616C15.8632 19.3344 16.1944 19.6584 16.6912 19.6584C17.188 19.6584 17.524 19.3128 17.5792 18.84L17.224 10.6776C18.4216 11.3904 18.9448 12.9168 18.9448 12.9168C19.0696 13.224 19.4872 13.4952 19.9816 13.2312C20.284 13.0704 20.464 12.5448 20.2552 12.1392C19.1824 10.0416 18.5704 9.01439 17.1808 8.54159V8.53919Z" fill="#EA0008"/>
<path id="Vector_5" d="M14.9514 16.2817V13.5648C14.9514 13.056 14.5386 12.6432 14.0298 12.6432C13.521 12.6432 13.1082 13.056 13.1082 13.5648V16.2817C13.1082 16.7905 13.521 17.2032 14.0298 17.2032C14.5386 17.2032 14.9514 16.7905 14.9514 16.2817Z" fill="#EA0008"/>
</g>
</g>
</g>
</svg>
