<svg width="24" height="24" viewBox="0 0 24 24" fill="none" xmlns="http://www.w3.org/2000/svg">
<g id="17_jumprope">
<g id="Group 42">
<g id="Group 17">
<path id="Vector" d="M17.2638 12.4224C17.4942 12.3168 17.6694 12.1464 17.727 11.9088C17.8182 11.5344 17.631 10.9992 17.0238 10.9152C16.695 10.8696 16.3422 10.8336 15.9678 10.7736C16.1766 11.1816 16.4334 11.5584 16.7526 11.9112C16.9206 12.096 17.091 12.2616 17.2614 12.4224H17.2638Z" fill="#EA0008"/>
<path id="Vector_2" d="M11.9959 20.2704C12.1735 20.3928 12.3967 20.4744 12.6223 20.4744C12.8479 20.4744 13.0663 20.3952 13.2391 20.196C13.5823 19.8048 14.0959 19.0296 14.5855 18.252C14.4103 18.348 14.2447 18.4344 14.0935 18.5136C13.2415 18.9528 12.4087 19.2912 11.6239 19.5312C11.6119 19.7808 11.6959 20.0592 11.9959 20.2704Z" fill="#EA0008"/>
<path id="Vector_3" d="M10.9182 9.88314C10.899 10.6007 11.0622 12.4151 11.175 13.0055C11.2638 13.4759 11.355 13.7255 11.595 14.1335C12.0318 14.8775 13.3182 15.9479 13.3182 15.9479C13.3182 15.9479 12.7854 17.0999 12.2958 18.0599C12.0126 18.1775 11.7318 18.2807 11.4534 18.3743C10.6974 18.6287 9.97025 18.7943 9.31505 18.8567C8.26385 18.9575 7.43825 18.7703 7.16225 18.2759C6.91025 17.8247 7.30864 16.9175 8.16304 15.9335C8.54464 15.4943 8.99584 15.0647 9.49024 14.6543C9.88864 14.3255 10.3158 14.0135 10.7622 13.7231L10.6614 13.0775C9.52625 13.7831 8.48224 14.6471 7.70944 15.5375C6.64384 16.7663 6.26465 17.8319 6.62705 18.5495C6.99665 19.2791 8.00944 19.5791 9.37024 19.4519C10.6782 19.3295 12.2334 18.8279 13.755 18.0431C15.0174 17.3927 16.6734 16.4903 17.8206 15.5519C18.099 15.3239 18.3486 15.0911 18.4326 15.0143C18.471 15.0311 18.5118 15.0383 18.5526 15.0383C18.6678 15.0383 18.7782 14.9711 18.8286 14.8583C18.8934 14.7071 18.8238 14.5295 18.6726 14.4647L18.3102 14.3063L17.739 14.0591C17.751 13.8455 17.6742 13.6127 17.4582 13.4135C17.1054 13.0871 16.6974 12.7463 16.3062 12.3119C15.9366 11.9015 15.579 11.4071 15.291 10.7591C15.0534 10.2215 14.871 9.63594 14.655 8.87034C14.5134 8.37114 14.0766 7.70154 12.9822 7.70154C11.7774 7.70154 10.9518 8.39994 10.9158 9.88074L10.9182 9.88314ZM16.2558 14.5511C16.6014 14.7791 17.0958 14.9519 17.4942 14.6063L17.8422 14.7575C17.3766 15.1871 16.1526 16.0175 15.8286 16.1975C15.8286 16.1975 16.0134 15.8927 16.0374 15.5327C16.0614 15.1727 15.7974 14.9351 15.4686 14.6903C13.2582 13.1423 12.6006 11.0375 12.6006 11.0375L13.1142 10.8599C13.6542 12.0359 14.6046 13.4663 16.2582 14.5511H16.2558Z" fill="#EA0008"/>
<path id="Vector_4" d="M18.2549 15.9672C17.6597 16.5864 16.9157 17.1528 16.0469 17.6568C15.9317 17.724 15.8933 17.8704 15.9581 17.9856C16.0013 18.0624 16.0829 18.1056 16.1669 18.1056C16.2077 18.1056 16.2485 18.096 16.2869 18.0744C17.1965 17.5488 17.9741 16.9536 18.6005 16.3032C18.6917 16.2072 18.6893 16.056 18.5933 15.9648C18.4973 15.8736 18.3461 15.876 18.2549 15.972V15.9672Z" fill="#EA0008"/>
<path id="Vector_5" d="M5.84222 17.9568C5.53262 17.448 6.08462 16.2672 7.21982 15.0192C7.30862 14.9208 7.30142 14.7696 7.20302 14.6808C7.10462 14.592 6.95342 14.5992 6.86462 14.6976C5.52542 16.1688 4.99022 17.4816 5.43182 18.2064C5.47742 18.2808 5.55662 18.3216 5.63582 18.3216C5.67902 18.3216 5.72222 18.3096 5.76062 18.2856C5.87342 18.216 5.90942 18.0696 5.83982 17.9568H5.84222Z" fill="#EA0008"/>
<path id="Vector_6" d="M12.4301 15.984C11.8229 16.428 11.0909 16.9608 10.6445 17.2608C10.5149 17.3496 10.2845 17.4792 10.0205 17.4792C9.7925 17.4792 9.5357 17.3808 9.2933 17.0736C8.8325 16.4904 9.2861 15.9936 9.4853 15.7944C9.8477 15.4368 10.5005 14.8248 11.0069 14.3544C11.0069 14.3544 11.5013 15.168 12.4301 15.9816V15.984Z" fill="#EA0008"/>
<path id="Vector_7" d="M15.8718 5.48877C15.8718 6.53277 15.027 7.37757 13.983 7.37757C12.939 7.37757 12.0942 6.53277 12.0942 5.48877C12.0942 4.44477 12.939 3.59998 13.983 3.59998C15.027 3.59998 15.8718 4.44477 15.8718 5.48877Z" fill="#EA0008"/>
</g>
</g>
</g>
</svg>
