<svg width="24" height="24" viewBox="0 0 24 24" fill="none" xmlns="http://www.w3.org/2000/svg">
<g id="18_treadmil">
<g id="Group 43">
<g id="Group 18">
<path id="Vector" d="M18.6227 7.91038L16.7123 9.83278H14.1539C13.9547 9.83278 13.7939 9.99358 13.7939 10.1928C13.7939 10.392 13.9547 10.5528 14.1539 10.5528H16.8083V15.864L13.6595 16.7616H6.41635C5.82595 16.7616 5.34595 17.2416 5.34595 17.832C5.34595 18.2328 5.56915 18.576 5.89315 18.7608C5.95315 19.1688 6.30115 19.4832 6.72595 19.4832C7.10035 19.4832 7.41475 19.2384 7.52515 18.9024H15.5891C15.6995 19.2384 16.0139 19.4832 16.3883 19.4832C16.7627 19.4832 17.1035 19.2168 17.2019 18.8568C17.6387 18.7344 17.9627 18.3432 17.9795 17.8704H17.9843V15.9576C17.9843 15.9576 17.9843 15.9528 17.9843 15.9504V9.87838L19.2899 8.57278C19.4747 8.39038 19.4747 8.09278 19.2899 7.90798C19.1075 7.72558 18.8099 7.72558 18.6251 7.90798L18.6227 7.91038Z" fill=""/>
<path id="Vector_2" d="M7.37384 12.5568L4.95944 12.8232C4.95944 12.8232 4.53704 12.9072 4.56104 13.4112C4.58264 13.8768 4.88984 13.968 4.99304 13.9872L8.19705 13.92C8.33625 13.92 8.50665 13.8216 8.57144 13.6968L8.80184 13.344L7.69544 11.8248L7.37625 12.5592L7.37384 12.5568Z" fill=""/>
<path id="Vector_3" d="M11.1321 10.3824C11.1441 10.4784 11.1897 10.608 11.2833 10.6656C11.9145 11.052 13.6521 11.9496 13.6521 11.9496C13.8417 12.0264 14.0866 11.9448 14.2402 11.712C14.4442 11.4024 14.2425 11.1072 14.2425 11.1072L12.4713 9.72723C12.4713 9.72723 12.4665 8.38563 12.4497 7.85763C12.4281 7.20963 11.6554 6.58803 11.1346 6.58083C10.3834 6.57123 8.13455 6.50403 8.13455 6.50403C7.90655 6.50403 7.76975 6.65523 7.63535 6.81603L6.31295 8.47443C6.31295 8.47443 6.09215 8.82963 6.48575 9.14883C6.72575 9.34323 6.97775 9.30243 7.10495 9.17043L8.48015 7.75443L9.68015 8.05923L8.34095 9.82803C8.15615 10.1424 7.79375 10.7568 8.09135 11.2656L9.64415 13.3992L8.98655 15.828C8.98655 15.828 8.93134 16.224 9.41135 16.3824C9.67774 16.4712 10.0017 16.4352 10.1121 16.188L11.2521 13.0704C11.3049 12.9408 11.2737 12.744 11.1849 12.636L10.0593 11.0016L11.0793 9.80403L11.1274 10.3872L11.1321 10.3824Z" fill=""/>
<path id="Vector_4" d="M14.5114 5.70961C14.5114 4.94161 13.8898 4.32001 13.1218 4.32001C12.3538 4.32001 11.7322 4.94161 11.7322 5.70961C11.7322 6.47761 12.3538 7.09921 13.1218 7.09921C13.8898 7.09921 14.5114 6.47761 14.5114 5.70961Z" fill=""/>
</g>
</g>
</g>
</svg>
