<svg width="24" height="24" viewBox="0 0 24 24" fill="none" xmlns="http://www.w3.org/2000/svg">
<g id="19_kettlebell">
<g id="Group 44">
<g id="Group 19">
<path id="Vector" d="M16.9132 14.0112L15.4156 13.2888C15.1756 14.4552 14.9596 15.48 14.9428 15.5592C14.9068 15.7344 14.8276 15.8928 14.7244 16.032L14.9116 19.7472C14.9116 19.7472 14.8876 20.4168 15.6604 20.5584C16.3732 20.6904 16.7212 20.2008 16.7572 19.9488C16.7596 19.9272 17.29 14.8632 17.29 14.8632C17.3284 14.4552 17.2684 14.208 16.9132 14.0088V14.0112Z" fill="#EA0008"/>
<path id="Vector_2" d="M9.08436 15.564C9.06756 15.4848 8.84437 14.46 8.60197 13.2912L7.12116 14.0064C6.72036 14.2272 6.70596 14.6928 6.72516 14.9304L7.25317 19.8648C7.29157 20.0832 7.65637 20.688 8.36917 20.5584C9.14197 20.4168 9.11796 19.7472 9.11796 19.7472L9.30516 16.032C9.20196 15.8928 9.12516 15.7368 9.08676 15.5616L9.08436 15.564Z" fill="#EA0008"/>
<path id="Vector_3" d="M13.6803 7.836C13.2123 8.1816 12.6363 8.388 12.0123 8.388C11.3883 8.388 10.8147 8.1816 10.3467 7.836C8.82992 8.1984 8.43871 9.1176 8.61871 10.2408C8.85151 11.6832 9.66752 15.4344 9.66752 15.4344C9.69632 15.5736 9.77552 15.6936 9.88352 15.7872C9.80672 15.9624 9.79232 16.3032 9.83552 16.4856L9.90272 16.8264C9.97472 17.184 10.1979 17.4936 10.5051 17.712C10.3467 17.9904 10.2627 18.2976 10.2627 18.6144C10.2627 19.248 10.5867 19.8264 11.1267 20.1624C11.1651 20.1864 11.2083 20.1984 11.2539 20.1984H12.9195C12.9651 20.1984 13.0083 20.1864 13.0467 20.1624C13.5867 19.8264 13.9107 19.248 13.9107 18.6144C13.9107 18.24 13.8099 17.8992 13.6251 17.6232C13.8723 17.4144 14.0523 17.1408 14.1147 16.8288L14.1819 16.488C14.2275 16.272 14.2059 15.9552 14.1339 15.7896C14.2443 15.696 14.3211 15.576 14.3499 15.4368C14.3499 15.4368 15.1443 11.6832 15.3987 10.2432C15.5259 9.5304 15.5547 8.2848 13.6731 7.836H13.6803ZM11.6163 11.1288L12.0147 13.6344L12.4299 11.1288H12.9987L12.4491 14.8104H11.5803L11.0475 11.1288H11.6163ZM12.1059 17.7168C11.8275 17.7408 11.5755 17.8704 11.3979 18.084C11.2179 18.2976 11.1315 18.5664 11.1555 18.8424C11.1675 18.9744 11.0691 19.0896 10.9371 19.1016C10.9299 19.1016 10.9227 19.1016 10.9155 19.1016C10.7931 19.1016 10.6875 19.008 10.6755 18.8832C10.6419 18.48 10.7667 18.084 11.0283 17.7744C11.2899 17.4624 11.6595 17.2728 12.0627 17.2392C12.2019 17.2248 12.3123 17.3256 12.3219 17.4576C12.3339 17.5896 12.2355 17.7048 12.1035 17.7168H12.1059ZM13.4811 16.3488L13.4139 16.6896C13.3803 16.8552 13.2699 17.0016 13.1163 17.1144C12.8619 16.9344 12.5355 16.7928 12.0915 16.7928C11.6883 16.7928 11.2971 16.9272 10.9851 17.1624C10.7931 17.0472 10.6491 16.8792 10.6131 16.6896L10.5459 16.3488C10.5075 16.1592 10.5555 15.972 10.6803 15.8208C10.8315 15.636 11.0811 15.5304 11.3643 15.5304H12.6651C12.9483 15.5304 13.1979 15.636 13.3491 15.8208C13.4715 15.972 13.5195 16.1592 13.4835 16.3488H13.4811Z" fill="#EA0008"/>
<path id="Vector_4" d="M12.0123 7.79039C13.2363 7.79039 14.2275 6.79919 14.2275 5.57519C14.2275 4.35119 13.2363 3.35999 12.0123 3.35999C10.7883 3.35999 9.79712 4.35119 9.79712 5.57519C9.79712 6.79919 10.7883 7.79039 12.0123 7.79039Z" fill="#EA0008"/>
</g>
</g>
</g>
</svg>
