<svg width="24" height="24" viewBox="0 0 24 24" fill="none" xmlns="http://www.w3.org/2000/svg">
<g id="20_standingtoetouch">
<g id="Group 45">
<g id="Group 20">
<path id="Vector" d="M9.72733 6.04027C8.90653 5.98987 8.20092 6.61148 8.14812 7.43228C8.09772 8.25308 8.71933 8.95868 9.54013 9.01148C9.57613 9.01148 9.60973 9.01148 9.64573 9.01148C10.2025 8.44268 10.7641 7.87148 11.1193 7.51148C11.1121 6.73868 10.5097 6.09067 9.72733 6.04027Z" fill=""/>
<path id="Vector_2" d="M12.2666 6.71466C13.0034 5.71866 14.5226 3.66426 14.5226 3.66426C14.7314 3.34986 15.1562 3.26586 15.4706 3.47466C15.785 3.68586 15.869 4.10826 15.6602 4.42266L14.1674 7.17546C15.9962 8.00827 16.9562 8.95627 17.2634 9.34507C18.113 10.4179 19.0106 13.1539 19.4498 14.2579C19.6034 14.6419 19.5146 15.0763 19.1498 15.2755C18.785 15.4723 18.3314 15.3403 18.1322 14.9755L16.3202 11.5939L15.2786 13.3291C15.2114 13.2307 15.1466 13.1371 15.0794 13.0531C14.8562 12.7699 14.5202 12.4243 14.0162 12.0379L14.8322 10.3339C14.8322 10.3339 14.1002 10.0051 12.9962 9.66186L13.541 8.97786C14.033 8.40906 13.9802 7.54506 13.4186 7.04346C13.1642 6.81786 12.8162 6.65226 12.2666 6.71466Z" fill=""/>
<path id="Vector_3" d="M11.9161 7.55465C11.9161 7.55465 9.46095 10.0578 8.62575 10.9074C8.21055 11.3299 7.98734 11.8962 7.90814 12.1962C7.62254 13.293 7.31055 15.7315 7.17135 16.5667C7.09935 16.9939 7.27694 17.4523 7.70174 17.5411C8.22254 17.6515 8.58254 17.361 8.67614 17.0106C8.89454 16.1898 9.49934 13.7155 9.49934 13.7155C10.8889 14.1331 11.8297 14.5578 11.8297 14.5578L9.57855 19.2571C9.33375 19.6627 9.46334 20.1883 9.86894 20.4331C10.0081 20.5171 10.1593 20.5578 10.3105 20.5578C10.6009 20.5578 10.8817 20.4115 11.0449 20.1451L13.5313 15.9978L15.6025 19.8618C15.7585 20.1474 16.0513 20.3083 16.3561 20.3083C16.4953 20.3083 16.6345 20.2747 16.7641 20.2027C17.1793 19.9771 17.2825 19.4803 17.1073 19.0411C16.6057 17.7787 15.5785 14.6539 14.6065 13.4251C14.2441 12.9667 13.3249 12.0451 11.1025 11.0731L13.0801 8.59385C13.3657 8.27225 13.3369 7.78025 13.0177 7.49225C12.6937 7.20185 12.2353 7.22825 11.9161 7.55465Z" fill=""/>
<path id="Vector_4" d="M7.65127 11.1523C7.65127 12.0715 6.90487 12.8179 5.98567 12.8179C5.06647 12.8179 4.32007 12.0715 4.32007 11.1523C4.32007 10.2331 5.06647 9.48907 5.98567 9.48907C6.90487 9.48907 7.65127 10.2331 7.65127 11.1523Z" fill=""/>
</g>
</g>
</g>
</svg>
