<svg width="24" height="24" viewBox="0 0 24 24" fill="none" xmlns="http://www.w3.org/2000/svg">
<g id="21_stationarybike">
<g id="Group 46">
<g id="Group 21">
<path id="Vector" d="M17.0713 10.1208H17.8945C18.1585 10.1208 18.3745 9.90477 18.3745 9.64077C18.3745 9.37677 18.1585 9.16077 17.8945 9.16077H17.4121C17.4505 9.58557 17.2849 9.90717 17.0713 10.1208Z" fill=""/>
<path id="Vector_2" d="M11.3281 10.884C10.9921 10.7088 10.4113 10.3872 9.90495 10.104H9.90015C9.90015 10.104 10.7233 11.088 10.9873 11.424C11.2297 11.7312 11.3569 12.0504 11.3953 12.384C11.4241 12.6192 11.4265 12.9408 11.4169 13.3032C11.5225 12.9216 11.6305 12.5328 11.7553 12.1416C11.9521 11.5248 11.8489 11.1528 11.3257 10.8816L11.3281 10.884Z" fill=""/>
<path id="Vector_3" d="M19.0512 16.0176C19.0512 14.2608 17.6208 12.8304 15.864 12.8304C15.8328 12.8304 15.804 12.8352 15.7728 12.8352L15.1944 10.7424L14.1192 11.0016L11.5056 13.824L12.4248 13.8912L14.652 11.4864L15.0528 12.9384C14.4096 13.1088 13.8456 13.4712 13.428 13.9656L14.2176 14.0232C14.664 13.6536 15.2376 13.4304 15.864 13.4304C17.2896 13.4304 18.4512 14.5896 18.4512 16.0176C18.4512 17.4456 17.292 18.6048 15.864 18.6048C15.2016 18.6048 14.5992 18.3528 14.1408 17.9424L13.3416 17.9592C13.9248 18.7152 14.8368 19.2072 15.864 19.2072C16.1736 19.2072 16.4688 19.1616 16.752 19.0776L16.932 19.728L16.632 19.9104C16.4616 20.0136 16.4088 20.2344 16.512 20.4048C16.5792 20.5152 16.6992 20.5776 16.8192 20.5776C16.884 20.5776 16.9488 20.5608 17.0064 20.5248L17.9208 19.968C18.0912 19.8648 18.144 19.644 18.0408 19.4736C17.9424 19.3128 17.7384 19.2576 17.5728 19.3416L17.4216 18.7968C18.3936 18.2496 19.0512 17.2104 19.0512 16.02V16.0176Z" fill=""/>
<path id="Vector_4" d="M6.87844 11.772C6.63604 11.5128 6.41044 11.256 6.22564 11.0232H5.40004C5.20084 11.0232 5.04004 11.184 5.04004 11.3832C5.04004 11.5824 5.20084 11.7432 5.40004 11.7432H6.04324L7.43044 14.292C7.60564 14.1288 7.80724 13.992 8.03044 13.8864L6.87844 11.772Z" fill=""/>
<path id="Vector_5" d="M6.45597 19.2792L6.02157 19.3824C5.82717 19.428 5.70957 19.6224 5.75517 19.8168C5.79357 19.9824 5.94237 20.0928 6.10557 20.0928C6.13437 20.0928 6.16077 20.0904 6.18957 20.0832L7.78077 19.704C7.97517 19.6584 8.09277 19.464 8.04717 19.2696C8.00877 19.1064 7.86237 18.996 7.70157 18.9936L8.62557 17.9952C8.36637 17.9472 8.11677 17.856 7.88877 17.7312L6.45597 19.2792Z" fill=""/>
<path id="Vector_6" d="M9.32166 17.436L9.07926 17.4408C8.10966 17.4408 7.32246 16.7112 7.33686 15.816C7.34886 15.132 7.82406 14.5656 8.47926 14.3472L8.61846 16.3848C8.63526 16.5912 8.84406 17.1816 9.32166 17.4384V17.436Z" fill=""/>
<path id="Vector_7" d="M15.432 14.7143L11.3616 14.4167L11.2368 16.1639C11.2224 16.4639 11.196 17.0927 10.6296 17.4119L15.3864 17.316H15.3888C16.1136 17.316 16.704 16.7447 16.716 16.0367C16.728 15.3287 16.1568 14.7359 15.4296 14.7143H15.432Z" fill=""/>
<path id="Vector_8" d="M12.4177 6.59518C12.7753 7.13278 13.7233 9.01438 13.7233 9.01438L16.1473 8.64958C16.5121 8.59438 16.7449 8.81518 16.8049 9.14398C16.8889 9.60238 16.5841 9.78478 16.4521 9.82078C15.7321 10.02 13.3825 10.5624 13.3825 10.5624C13.0897 10.632 12.8329 10.5384 12.6121 10.2552C12.3001 9.85198 11.3641 8.63518 11.3641 8.63518L8.96891 9.92158L10.5073 11.784C10.6561 11.9808 10.7689 12.2016 10.7977 12.4536C10.8913 13.2408 10.6777 15.456 10.6273 16.2672C10.5913 16.8168 10.3417 16.9944 9.90971 16.9944C9.36251 16.9944 9.23771 16.5576 9.21371 16.344C9.11771 15.5064 8.98811 13.0128 8.98811 13.0128C8.98811 13.0128 6.96731 11.1576 6.44411 10.3056C6.17531 9.86638 6.15131 9.24718 6.62171 8.70478C7.25771 7.97038 9.15851 6.25438 10.8433 5.97118C11.4601 5.86798 12.0433 6.03598 12.4153 6.59518H12.4177Z" fill=""/>
<path id="Vector_9" d="M16.2481 14.3496C16.3489 14.3616 16.4473 14.388 16.5457 14.4264C17.2873 14.7144 17.7625 15.5976 17.6065 16.3968C17.5849 16.5024 17.5537 16.6056 17.5105 16.7016C17.4577 16.8216 17.5105 16.9656 17.6329 17.0184C17.6641 17.0328 17.6977 17.04 17.7313 17.04C17.8225 17.04 17.9113 16.9872 17.9497 16.8984C18.0073 16.7688 18.0505 16.632 18.0769 16.4904C18.2761 15.4752 17.6665 14.3496 16.7185 13.98C16.5841 13.9272 16.4449 13.8936 16.3081 13.8744C16.1761 13.86 16.0561 13.9512 16.0393 14.0808C16.0225 14.2128 16.1161 14.3328 16.2457 14.3496H16.2481Z" fill=""/>
<path id="Vector_10" d="M13.9824 6.88798C14.8903 6.88798 15.6264 6.15193 15.6264 5.24398C15.6264 4.33602 14.8903 3.59998 13.9824 3.59998C13.0744 3.59998 12.3384 4.33602 12.3384 5.24398C12.3384 6.15193 13.0744 6.88798 13.9824 6.88798Z" fill=""/>
</g>
</g>
</g>
</svg>
