<svg width="24" height="24" viewBox="0 0 24 24" fill="none" xmlns="http://www.w3.org/2000/svg">
<g id="22_yogapose">
<g id="Group 47">
<g id="Group 22">
<path id="Vector" d="M18.6648 19.8696L17.1216 18.0576C17.064 17.9904 16.98 17.952 16.8936 17.952H11.5392L11.4912 18.552H16.7568L17.7888 19.764H5.508L6.54 18.552H8.6856L8.6352 17.952H6.4032C6.3144 17.952 6.2328 17.9904 6.1752 18.0576L4.632 19.8696C4.5552 19.9584 4.5384 20.0832 4.5888 20.1888C4.6368 20.2944 4.7448 20.364 4.86 20.364H18.4392C18.5568 20.364 18.6624 20.2968 18.7104 20.1888C18.7584 20.0832 18.7416 19.9584 18.6672 19.8696H18.6648Z" fill=""/>
<path id="Vector_2" d="M13.512 6.93118C14.4312 6.93118 15.1776 6.18478 15.1776 5.26558C15.1776 4.34638 14.4312 3.59998 13.512 3.59998C12.5928 3.59998 11.8464 4.34638 11.8464 5.26558C11.8464 6.18478 12.5928 6.93118 13.512 6.93118Z" fill=""/>
<path id="Vector_3" d="M7.27933 8.41676C7.70653 8.61836 7.77373 9.10076 7.60093 9.53756C7.23613 10.4496 7.07053 10.7856 6.76813 11.5848C6.76813 11.5848 7.52173 11.6592 8.42653 11.5008C8.18653 12.1632 8.26813 12.912 8.31613 13.3536C7.70893 13.4376 6.22573 13.4856 5.45533 13.1352C5.18653 13.0128 4.67533 12.6792 4.86733 11.9976C4.88893 11.9208 5.34973 10.44 6.15373 8.84156C6.38413 8.38556 6.91693 8.24156 7.28413 8.41436L7.27933 8.41676Z" fill=""/>
<path id="Vector_4" d="M18.3936 7.4376C18.8496 7.4256 19.2192 7.8072 19.2192 8.2608C19.2192 8.7144 18.8808 8.976 18.3072 9.0288L14.3832 9.3528C13.8144 11.1312 12.0456 12.4704 11.268 12.9768L10.92 18.2616C10.92 18.7752 10.62 19.056 10.1064 19.056C9.59282 19.056 9.25442 18.744 9.25442 18.2304C9.25442 18.2304 9.01442 14.6472 8.94482 13.5168C8.91122 12.9816 8.64002 11.8152 9.39602 11.1024C9.88562 10.6392 11.172 9.972 11.3208 8.81761C11.3208 8.81761 8.58962 8.0592 7.82642 7.8216C7.39202 7.6848 7.13522 7.24801 7.27922 6.81601C7.44002 6.32641 7.94642 6.1992 8.32802 6.3048C9.52082 6.6336 11.508 7.2384 13.4112 7.4088C15.2664 7.5768 17.6808 7.4592 18.4008 7.4376H18.3936Z" fill=""/>
</g>
</g>
</g>
</svg>
