<svg width="24" height="24" viewBox="0 0 24 24" fill="none" xmlns="http://www.w3.org/2000/svg">
<g id="23_skimachine">
<g id="Group 48">
<g id="Group 23">
<path id="Vector" d="M8.30878 13.1568C7.98238 13.02 7.74719 12.852 7.57199 12.672L6.76318 14.5776L8.28958 14.7984L9.02158 13.4328C8.75518 13.3344 8.49838 13.236 8.30878 13.1568Z" fill=""/>
<path id="Vector_2" d="M9.52565 7.08001C10.4064 7.17601 12.744 7.49281 13.8936 7.63921C14.0376 7.65841 14.1528 7.71121 14.244 7.79281L14.3689 7.39681C14.4433 7.17601 14.6592 7.11121 14.82 7.16161C15.0096 7.22161 15.1152 7.42321 15.0552 7.61281L14.0352 10.8552L15.3792 17.244L16.4136 10.1592L15.6817 10.2936C15.5593 10.3152 15.3073 10.2648 15.2617 10.0056C15.2281 9.80881 15.3552 9.62161 15.5496 9.58561L18.9 8.96641C19.0944 8.93041 19.284 9.06001 19.32 9.25441C19.356 9.44881 19.2264 9.63841 19.032 9.67441L17.8296 9.89761L16.6633 17.8872V18.5616C16.7929 18.7104 16.8744 18.9024 16.8744 19.116C16.8744 19.584 16.4952 19.9632 16.0248 19.9632C15.6432 19.9632 15.3241 19.7088 15.2161 19.3608L7.14005 19.3656C7.03205 19.7112 6.71525 19.9632 6.33365 19.9632C5.86565 19.9632 5.48645 19.584 5.48645 19.116C5.48645 19.056 5.49365 18.9984 5.50325 18.9432C5.07605 18.576 4.80005 18.0072 4.80005 17.3664C4.80005 16.2624 5.61605 15.3672 6.62165 15.3672L9.63125 15.8064C9.68645 16.02 9.87365 16.4832 10.5217 16.6536C10.8529 16.74 11.5224 16.752 11.9592 16.0872C12.4968 16.272 12.9552 16.7088 13.1472 17.22H14.6328L13.3033 10.908C13.2913 10.848 13.2936 10.7856 13.3128 10.7256L13.8576 8.99521C13.8193 9.00481 13.7424 9.00481 13.6872 8.99521L10.584 8.72401L9.92885 10.9008C9.92885 10.9008 11.3497 11.7096 11.9161 12.0072C12.3505 12.2352 12.4368 12.5448 12.2712 13.056C11.9712 13.9896 11.7744 14.8944 11.4577 15.7512C11.3833 15.9504 11.0905 16.1568 10.6633 16.068C10.2025 15.972 10.0969 15.5664 10.1617 15.3312C10.3921 14.4792 10.68 13.296 10.68 13.296C10.68 13.296 9.21845 12.7944 8.57045 12.5232C7.82165 12.2088 7.70645 11.7504 7.86245 11.0424L8.53925 7.80721C8.62805 7.32961 9.06005 7.02721 9.52085 7.07761L9.52565 7.08001Z" fill=""/>
<path id="Vector_3" d="M11.8656 5.45042C11.8656 6.20641 11.2536 6.82081 10.4976 6.82081C9.7416 6.82081 9.1272 6.20882 9.1272 5.45042C9.1272 4.69201 9.7392 4.08002 10.4976 4.08002C11.256 4.08002 11.8656 4.69201 11.8656 5.45042Z" fill=""/>
</g>
</g>
</g>
</svg>
