<svg width="24" height="24" viewBox="0 0 24 24" fill="none" xmlns="http://www.w3.org/2000/svg">
<g id="24_batlleropes">
<g id="Group 49">
<g id="Group 25">
<path id="Vector" d="M11.8127 9.56642C12.3575 9.69362 12.9791 10.0056 13.4183 10.7328C13.5791 11.0016 13.7591 11.3304 13.9679 11.712C14.0783 11.9184 14.1983 12.1344 14.3207 12.3552C14.5823 12.2616 14.8295 12.1728 15.0647 12.0888C14.9183 11.8272 14.7815 11.5752 14.6519 11.3376C14.4407 10.9488 14.2559 10.6104 14.0855 10.3272C13.5071 9.36481 12.6455 8.93281 11.8655 8.77441C11.9207 9.02641 11.9135 9.29761 11.8127 9.56161V9.56642Z" fill=""/>
<path id="Vector_2" d="M21.4437 16.8696C21.6261 16.7568 21.7053 16.5312 21.6021 16.3416C21.5013 16.152 21.2637 16.08 21.0741 16.1808C20.6589 16.404 20.2125 16.464 19.5309 16.3896C17.9805 16.2216 16.7541 14.8152 15.8013 13.332C17.5749 12.9216 18.4437 13.1304 18.7749 13.2696C19.0293 13.3752 19.2957 13.5312 19.5693 13.728C19.7445 13.8552 19.9869 13.8144 20.1141 13.6392C20.2413 13.464 20.1933 13.2288 20.0253 13.0944C18.4629 11.844 16.2933 12.2664 13.7277 13.1352C13.1469 13.332 12.6357 13.4136 12.1989 13.4208C11.7429 13.428 11.3781 13.3632 11.1213 13.2936C11.1285 13.4352 11.1093 13.596 11.0517 13.7808C11.0205 13.884 10.9797 13.9728 10.9365 14.0496C11.2365 14.1288 11.6421 14.2008 12.1341 14.2008C12.6645 14.2008 13.2933 14.1168 13.9893 13.8696C14.3541 13.74 14.6925 13.6296 15.0093 13.5384C16.0725 15.2472 17.4981 16.9512 19.4469 17.1648C20.2845 17.256 21.0165 17.1312 21.4437 16.8672V16.8696Z" fill=""/>
<path id="Vector_3" d="M9.89492 8.38801C9.44612 8.58241 8.57972 9.03601 8.11892 9.26641L8.06372 11.1984C8.79332 10.8072 10.0965 10.1064 10.6797 9.78241C10.8837 9.66961 11.3565 9.36481 11.1117 8.76721C10.9149 8.28961 10.4541 8.14561 9.89732 8.38801H9.89492Z" fill=""/>
<path id="Vector_4" d="M3.52047 18.3384C3.50847 18.468 3.55407 18.8424 3.89247 18.984C4.14447 19.0896 4.63167 19.176 4.92927 18.816C5.20287 18.4848 5.68046 17.5176 6.13406 16.5432C5.64926 16.3704 4.96047 16.1232 4.35807 15.9C4.09407 16.6032 3.53247 18.1608 3.51807 18.3384H3.52047Z" fill=""/>
<path id="Vector_5" d="M4.97021 8.23201C3.91661 9.05281 2.64701 11.1888 2.41901 12.7128C2.31581 13.4016 2.6038 14.3688 3.9478 14.8968C4.9462 15.2904 7.0294 16.0224 7.0294 16.0224C7.0294 16.0224 6.2806 18.912 6.2854 19.152C6.2878 19.2912 6.379 19.6776 6.751 19.788C7.5502 20.0256 7.8214 19.4904 7.8214 19.4904C8.1814 18.9384 8.9518 16.6728 9.2998 15.5472C9.2998 15.5472 9.5278 15.0168 8.9926 14.6328L8.27021 14.196L5.395 13.692C5.1454 13.5912 4.9702 13.3392 4.9654 13.0776L4.81901 11.1144L5.49341 11.1768L5.5942 12.7704C5.5966 12.9384 5.7166 13.1016 5.8726 13.164C5.8726 13.164 8.4118 13.812 9.3406 14.0088C9.643 14.0736 10.1782 14.0088 10.315 13.4784C10.471 12.8712 10.147 12.588 9.87581 12.4968C9.23981 12.2832 7.447 11.8176 7.447 11.8176C7.447 11.8176 7.5046 9.83761 7.5238 9.17761C7.555 8.13841 6.3694 7.13761 4.9678 8.22961L4.97021 8.23201Z" fill=""/>
<path id="Vector_6" d="M9.77742 6.10081C9.77742 7.08481 8.98062 7.88161 7.99662 7.88161C7.01262 7.88161 6.21582 7.08481 6.21582 6.10081C6.21582 5.11681 7.01262 4.32001 7.99662 4.32001C8.98062 4.32001 9.77742 5.11681 9.77742 6.10081Z" fill=""/>
</g>
</g>
</g>
</svg>
