<svg width="24" height="24" viewBox="0 0 24 24" fill="none" xmlns="http://www.w3.org/2000/svg">
<g id="25_weightedlegdip">
<g id="Group 50">
<g id="Group 24">
<path id="Vector" d="M10.0619 15.7872C10.2059 16.7448 10.3619 17.6616 10.3619 17.6616C10.3619 17.6616 8.81869 18.0984 7.46749 18.42C7.09549 18.5064 6.32509 18.8184 6.50749 19.6848C6.64909 20.3664 7.29709 20.6136 7.55629 20.5776C8.97709 20.3856 10.3715 19.9656 11.8835 19.6776C12.7139 19.5192 13.0739 19.1688 13.0643 18.4008C13.0595 18.0384 13.0619 17.472 13.0667 16.8984C12.4139 16.74 11.7131 16.5624 11.2475 16.4256C10.7171 16.2696 10.3379 16.0488 10.0619 15.7896V15.7872Z" fill="#EA0008"/>
<path id="Vector_2" d="M16.5539 20.4648C16.9259 19.0248 17.0651 17.5848 17.3771 16.0536C17.5475 15.2136 17.3603 14.7384 16.6331 14.4552C15.9635 14.1936 14.7059 13.632 14.0219 13.3224L14.1059 13.6488C14.2835 14.3376 13.8683 15.0432 13.1771 15.2208C13.0715 15.2472 12.9635 15.2616 12.8555 15.2616C12.5531 15.2616 12.2723 15.156 12.0467 14.976C11.8739 15.3312 11.5715 15.6192 11.1851 15.7704C11.2571 15.7968 11.3339 15.8232 11.4155 15.8472C12.4907 16.1664 14.8931 16.7064 14.8931 16.7064C14.8931 16.7064 14.7083 18.3216 14.4875 19.716C14.4275 20.0976 14.4275 20.916 15.3059 21.1056C15.8171 21.216 16.4315 20.9208 16.5491 20.4648H16.5539Z" fill="#EA0008"/>
<path id="Vector_3" d="M12.9083 7.61278C13.5971 7.79518 14.5187 8.34238 14.2715 9.75358C14.1683 10.3464 13.8515 11.76 13.6739 12.5496C13.4339 12.2808 13.0883 12.1152 12.7115 12.1152C12.6035 12.1152 12.4955 12.1296 12.3899 12.156C12.2051 12.204 12.0419 12.2904 11.9027 12.4032L11.7923 11.7912L12.8771 10.3944L12.3803 10.0536L11.1539 11.6352L11.5883 14.0496C11.7107 14.5944 11.3675 15.1344 10.8251 15.2568C10.4579 15.3408 9.76666 15.1968 9.61786 14.4936L8.98426 11.6784C8.92666 11.4264 8.96986 11.1648 9.09946 10.944L10.6475 8.32318C11.0027 7.70158 11.9963 7.37518 12.9083 7.61758V7.61278Z" fill="#EA0008"/>
<path id="Vector_4" d="M8.26438 13.8864C7.89478 13.98 7.67397 14.3568 7.76757 14.7264L7.91158 15.2904C8.00758 15.66 8.38438 15.888 8.75158 15.7872C9.21478 15.66 9.31558 15.2088 9.24838 14.9472L9.10197 14.3832C9.00117 14.04 8.66517 13.7856 8.26197 13.8864H8.26438Z" fill="#EA0008"/>
<path id="Vector_5" d="M12.5385 12.7368C12.1689 12.8304 11.9481 13.2072 12.0417 13.5768L12.1857 14.1408C12.2817 14.5104 12.6585 14.7384 13.0257 14.6376C13.4889 14.5104 13.5897 14.0592 13.5225 13.7976L13.3761 13.2336C13.2753 12.8904 12.9393 12.636 12.5361 12.7368H12.5385Z" fill="#EA0008"/>
<path id="Vector_6" d="M15.1427 4.9992C15.1427 6.1704 14.1947 7.1184 13.0235 7.1184C11.8523 7.1184 10.9043 6.1704 10.9043 4.9992C10.9043 3.828 11.8523 2.88 13.0235 2.88C14.1947 2.88 15.1427 3.828 15.1427 4.9992Z" fill="#EA0008"/>
</g>
</g>
</g>
</svg>
