<svg width="267" height="267" viewBox="0 0 267 267" fill="none" xmlns="http://www.w3.org/2000/svg">
<g filter="url(#filter0_dd_76_670)">
<path d="M129.35 17.2C67.41 17.2 17.2 67.41 17.2 129.35C17.2 191.29 67.41 241.49 129.34 241.49C191.27 241.49 241.48 191.28 241.48 129.35C241.48 67.42 191.28 17.2 129.35 17.2ZM129.35 218.05C80.36 218.05 40.64 178.34 40.64 129.34C40.64 80.34 80.35 40.64 129.35 40.64C178.35 40.64 218.06 80.35 218.06 129.35C218.06 178.35 178.35 218.06 129.35 218.06V218.05Z" fill="url(#paint0_linear_76_670)"/>
<path d="M129.35 12C64.54 12 12 64.54 12 129.35C12 194.16 64.54 246.7 129.35 246.7C194.16 246.7 246.7 194.16 246.7 129.35C246.7 64.54 194.15 12 129.35 12ZM129.35 244C66.03 244 14.69 192.67 14.69 129.34C14.69 66.01 66.02 14.69 129.35 14.69C192.68 14.69 244.01 66.02 244.01 129.35C244.01 192.68 192.68 244.01 129.35 244.01V244Z" fill="url(#paint1_linear_76_670)"/>
<path d="M77.97 114.97C82.35 114.97 85.98 116.55 88.85 119.72C91.47 122.61 92.77 126.03 92.77 129.98C92.77 133.93 91.39 137.42 88.62 140.39C85.86 143.36 82.3 144.84 77.96 144.84C73.62 144.84 70.04 143.36 67.27 140.39C64.51 137.42 63.12 133.95 63.12 129.98C63.12 126.01 64.43 122.63 67.04 119.74C69.92 116.55 73.55 114.96 77.95 114.96L77.97 114.97ZM77.96 118.55C74.92 118.55 72.31 119.67 70.12 121.92C67.94 124.17 66.84 126.88 66.84 130.07C66.84 132.12 67.34 134.04 68.33 135.82C69.33 137.6 70.67 138.97 72.37 139.93C74.06 140.9 75.93 141.38 77.95 141.38C79.97 141.38 81.84 140.9 83.53 139.93C85.22 138.96 86.57 137.59 87.57 135.82C88.57 134.04 89.06 132.13 89.06 130.07C89.06 126.88 87.96 124.17 85.77 121.92C83.58 119.67 80.97 118.55 77.95 118.55H77.96Z" fill="#EA0008"/>
<path d="M99.52 104.73H103.18V127.17L116.35 115.7H121.72L106.1 129.25L122.63 144.11H117.48L103.17 131.32V144.11H99.51V104.73H99.52Z" fill="#EA0008"/>
<path d="M123.34 115.7H127.21L136.97 137.58L146.45 115.7H150.34L133.39 154.51H129.53L135 141.96L123.34 115.7Z" fill="#EA0008"/>
<path d="M153.69 115.7H157.42V119.85C158.53 118.21 159.71 116.99 160.95 116.18C162.19 115.37 163.47 114.97 164.82 114.97C165.83 114.97 166.91 115.29 168.06 115.94L166.15 119.02C165.38 118.69 164.74 118.52 164.22 118.52C163 118.52 161.83 119.02 160.69 120.02C159.56 121.02 158.7 122.58 158.1 124.68C157.65 126.3 157.42 129.57 157.42 134.5V144.11H153.69V115.7Z" fill="#EA0008"/>
<path d="M170.69 115.7H174.35V128.97C174.35 132.21 174.52 134.44 174.87 135.66C175.39 137.4 176.39 138.78 177.87 139.79C179.35 140.8 181.1 141.3 183.14 141.3C185.18 141.3 186.91 140.81 188.33 139.82C189.75 138.83 190.73 137.54 191.27 135.94C191.64 134.84 191.82 132.52 191.82 128.97V115.7H195.55V129.65C195.55 133.57 195.09 136.52 194.18 138.5C193.27 140.49 191.89 142.04 190.05 143.16C188.21 144.28 185.91 144.84 183.14 144.84C180.37 144.84 178.06 144.28 176.21 143.16C174.36 142.04 172.97 140.47 172.06 138.46C171.15 136.45 170.69 133.42 170.69 129.38V115.69V115.7Z" fill="#EA0008"/>
<path d="M136.97 114.32C140.068 114.32 142.58 111.808 142.58 108.71C142.58 105.612 140.068 103.1 136.97 103.1C133.872 103.1 131.36 105.612 131.36 108.71C131.36 111.808 133.872 114.32 136.97 114.32Z" fill="#EA0008"/>
</g>
<defs>
<filter id="filter0_dd_76_670" x="0" y="0" width="266.7" height="266.7" filterUnits="userSpaceOnUse" color-interpolation-filters="sRGB">
<feFlood flood-opacity="0" result="BackgroundImageFix"/>
<feColorMatrix in="SourceAlpha" type="matrix" values="0 0 0 0 0 0 0 0 0 0 0 0 0 0 0 0 0 0 127 0" result="hardAlpha"/>
<feOffset dx="4" dy="4"/>
<feGaussianBlur stdDeviation="8"/>
<feComposite in2="hardAlpha" operator="out"/>
<feColorMatrix type="matrix" values="0 0 0 0 0.534167 0 0 0 0 0.645967 0 0 0 0 0.749167 0 0 0 0.48 0"/>
<feBlend mode="normal" in2="BackgroundImageFix" result="effect1_dropShadow_76_670"/>
<feColorMatrix in="SourceAlpha" type="matrix" values="0 0 0 0 0 0 0 0 0 0 0 0 0 0 0 0 0 0 127 0" result="hardAlpha"/>
<feOffset dx="4" dy="4"/>
<feGaussianBlur stdDeviation="2"/>
<feComposite in2="hardAlpha" operator="out"/>
<feColorMatrix type="matrix" values="0 0 0 0 0 0 0 0 0 0 0 0 0 0 0 0 0 0 0.08 0"/>
<feBlend mode="normal" in2="effect1_dropShadow_76_670" result="effect2_dropShadow_76_670"/>
<feBlend mode="normal" in="SourceGraphic" in2="effect2_dropShadow_76_670" result="shape"/>
</filter>
<linearGradient id="paint0_linear_76_670" x1="42.71" y1="1.75001" x2="223.49" y2="268" gradientUnits="userSpaceOnUse">
<stop stop-color="#ED7E22"/>
<stop offset="0.7" stop-color="#EA0008"/>
</linearGradient>
<linearGradient id="paint1_linear_76_670" x1="38.69" y1="-4.17" x2="227.85" y2="274.43" gradientUnits="userSpaceOnUse">
<stop stop-color="#ED7E22"/>
<stop offset="0.7" stop-color="#EA0008"/>
</linearGradient>
</defs>
</svg>
